<?xml version="1.0" encoding="UTF-8" standalone="no"?>
<svg
   xmlns:dc="http://purl.org/dc/elements/1.1/"
   xmlns:cc="http://creativecommons.org/ns#"
   xmlns:rdf="http://www.w3.org/1999/02/22-rdf-syntax-ns#"
   xmlns:svg="http://www.w3.org/2000/svg"
   xmlns="http://www.w3.org/2000/svg"
   xmlns:sodipodi="http://sodipodi.sourceforge.net/DTD/sodipodi-0.dtd"
   xmlns:inkscape="http://www.inkscape.org/namespaces/inkscape"
   viewBox="0 0 1000 666.66669"
   xml:space="preserve"
   id="svg2"
   version="1.1"
   sodipodi:docname="´pëople2.svg"
   inkscape:version="0.92.4 (5da689c313, 2019-01-14)"><sodipodi:namedview
     pagecolor="#ffffff"
     bordercolor="#666666"
     borderopacity="1"
     objecttolerance="10"
     gridtolerance="10"
     guidetolerance="10"
     inkscape:pageopacity="0"
     inkscape:pageshadow="2"
     inkscape:window-width="1920"
     inkscape:window-height="1017"
     id="namedview188"
     showgrid="false"
     inkscape:zoom="0.35399999"
     inkscape:cx="502.82486"
     inkscape:cy="333.33334"
     inkscape:window-x="-8"
     inkscape:window-y="-8"
     inkscape:window-maximized="1"
     inkscape:current-layer="svg2" /><metadata
     id="metadata8"><rdf:RDF><cc:Work
         rdf:about=""><dc:format>image/svg+xml</dc:format><dc:type
           rdf:resource="http://purl.org/dc/dcmitype/StillImage" /></cc:Work></rdf:RDF></metadata><defs
     id="defs6"><clipPath
       id="clipPath24"
       clipPathUnits="userSpaceOnUse"><path
         id="path22"
         d="m 7270.19,1655.17 c 0,-61.11 -452.23,-414.14 -464.03,-471.76 -82.53,-403.34 -439.4,-706.75 -867.15,-706.75 -488.83,0 -885.12,396.289 -885.12,885.13 0,271.69 122.4,514.78 315.07,677.15 154.01,129.78 453.03,496.16 670.19,496.16 230.36,0 358.84,-35.1 516.31,-179.32 176.7,-161.82 714.73,-442.14 714.73,-700.61 z" /></clipPath><clipPath
       id="clipPath194"
       clipPathUnits="userSpaceOnUse"><path
         id="path192"
         d="M 2787.76,496.891 H 4547.59 V 2442.59 H 2787.76 Z" /></clipPath><clipPath
       id="clipPath254"
       clipPathUnits="userSpaceOnUse"><path
         id="path252"
         d="m 4552.8,3592.47 c 0,-487.81 -396.29,-883.25 -885.13,-883.25 -488.84,0 -885.13,395.44 -885.13,883.25 0,487.8 423.98,1103.93 912.82,1103.93 488.85,0 857.44,-616.13 857.44,-1103.93 z" /></clipPath><clipPath
       id="clipPath316"
       clipPathUnits="userSpaceOnUse"><path
         id="path314"
         d="m 2248.81,1361.79 c 0,-488.841 -396.29,-885.13 -885.13,-885.13 -488.844,0 -885.129,396.289 -885.129,885.13 0,488.84 371.992,1079.65 860.829,1079.65 488.85,0 909.43,-590.81 909.43,-1079.65 z" /></clipPath></defs><path
     id="path16"
     style="fill:#d4e5ee;fill-opacity:1;fill-rule:nonzero;stroke:none;stroke-width:0.13333333"
     d="m 909.88664,485.09467 c 0,65.1788 -52.83866,118.01733 -118.01866,118.01733 -65.17733,0 -118.016,-52.83853 -118.016,-118.01733 0,-65.17866 52.83867,-118.01733 118.016,-118.01733 65.18,0 118.01866,52.83867 118.01866,118.01733"
     inkscape:connector-curvature="0" /><g
     id="g18"
     transform="matrix(0.13333333,0,0,-0.13333333,0,666.66667)"><g
       clip-path="url(#clipPath24)"
       id="g20"><path
         id="path26"
         style="fill:#fdc3ab;fill-opacity:1;fill-rule:nonzero;stroke:none"
         d="m 6388.76,1249.29 78.61,-367.52 c 16.49,-77.09 -27.12,-154.379 -101.64,-180.11 v 0 c -89.91,-31.058 -186.45,24.871 -204.22,118.328 l -75.07,394.842 302.32,34.46"
         inkscape:connector-curvature="0" /><path
         id="path28"
         style="fill:#fdac52;fill-opacity:1;fill-rule:nonzero;stroke:none"
         d="m 6212.24,1609.34 c 0,0 170.86,-83.13 219.49,-296.46 l 23.23,-203.86 -233.31,-68.29 -9.41,568.61"
         inkscape:connector-curvature="0" /><path
         id="path30"
         style="fill:#fdc3ab;fill-opacity:1;fill-rule:nonzero;stroke:none"
         d="m 6738.34,1495.7 2.8,76.01 c 1.46,39.67 12.22,78.44 31.42,113.18 l 33.8,61.16 c 8.02,14.55 27.19,18.37 40.19,8.03 v 0 c 10.98,-8.72 15.55,-23.24 11.56,-36.69 l -21.15,-71.09 209.54,201.12 c 8.86,8.86 23.48,7.94 31.16,-1.97 l 5.13,-6.64 c 6.06,-7.82 5.76,-18.83 -0.7,-26.32 l -120.35,-122.99 157.78,122.16 c 9.39,8.23 23.86,6.41 30.89,-3.91 l 3.49,-5.1 c 5.9,-8.68 4.43,-20.4 -3.45,-27.33 l -160.41,-131.96 147.59,81.81 c 11.46,6.7 26.19,1.1 30.28,-11.54 l 0.82,-2.55 c 2.8,-8.66 -0.35,-18.14 -7.79,-23.38 l -144.7,-102.09 95.34,50.33 c 13.56,7.15 29.93,-2.33 30.49,-17.64 v 0 c 0.26,-7.28 -3.31,-14.18 -9.41,-18.16 l -299.53,-215.96 -94.79,111.52"
         inkscape:connector-curvature="0" /><path
         id="path32"
         style="fill:none;stroke:#fe9575;stroke-width:9.82361984;stroke-linecap:round;stroke-linejoin:round;stroke-miterlimit:10;stroke-dasharray:none;stroke-opacity:1"
         d="m 6836.96,1646.3 c 0,0 31.09,-48.44 6.12,-116"
         inkscape:connector-curvature="0" /><path
         id="path34"
         style="fill:#fdc3ab;fill-opacity:1;fill-rule:nonzero;stroke:none"
         d="m 6738.34,1495.7 94.79,-111.52 C 6753.48,1229.06 6455.96,781.121 6455.96,781.121 6419.15,705.238 6321.34,683.32 6255.67,736.238 v 0 c -54.59,43.981 -64.92,123.133 -23.45,179.672 l 506.12,579.79"
         inkscape:connector-curvature="0" /><path
         id="path36"
         style="fill:none;stroke:#fe9575;stroke-width:9.82361984;stroke-linecap:round;stroke-linejoin:round;stroke-miterlimit:10;stroke-dasharray:none;stroke-opacity:1"
         d="M 6448.71,1163.91 6278.64,969.078"
         inkscape:connector-curvature="0" /><path
         id="path38"
         style="fill:#171717;fill-opacity:1;fill-rule:nonzero;stroke:none"
         d="m 6224.3,2334.78 c 0,0 197.2,-71.99 14.51,-247.61 l -14.51,247.61"
         inkscape:connector-curvature="0" /><path
         id="path40"
         style="fill:#fe9575;fill-opacity:1;fill-rule:nonzero;stroke:none"
         d="m 6132.03,1996.37 c 2.45,-40.91 37.6,-72.07 78.5,-69.62 40.91,2.46 72.07,37.61 69.62,78.5 -2.46,40.9 -37.61,72.07 -78.51,69.61 -40.9,-2.45 -72.07,-37.59 -69.61,-78.49"
         inkscape:connector-curvature="0" /><path
         id="path42"
         style="fill:#fdc3ab;fill-opacity:1;fill-rule:nonzero;stroke:none"
         d="m 6067.35,1839.22 -42.42,-242.91 -262.83,8.56 112.43,441.78 192.82,-207.43"
         inkscape:connector-curvature="0" /><path
         id="path44"
         style="fill:#fe9575;fill-opacity:1;fill-rule:nonzero;stroke:none"
         d="m 6041.42,1691.08 c 0,0 -188.38,61 -182.36,225.66 l 203.84,-104.66 -21.48,-121"
         inkscape:connector-curvature="0" /><path
         id="path46"
         style="fill:#fdc3ab;fill-opacity:1;fill-rule:nonzero;stroke:none"
         d="m 6226.04,2287.91 c 12.03,-17.35 30.93,-79.89 30.24,-101 -2.33,-70.47 -12.37,-242.61 -55.19,-312.32 -54.47,-88.68 -146.22,-130.89 -265.65,-76.55 0,0 -136.67,30.65 -128.46,265.82 12.24,350.53 296.47,400.87 419.06,224.05"
         inkscape:connector-curvature="0" /><path
         id="path48"
         style="fill:#171717;fill-opacity:1;fill-rule:nonzero;stroke:none"
         d="m 6170.53,2004.31 c 0.21,-9.38 7.98,-16.8 17.35,-16.6 9.38,0.22 16.8,7.99 16.58,17.37 -0.2,9.37 -7.98,16.79 -17.35,16.58 -9.38,-0.21 -16.8,-7.99 -16.58,-17.35"
         inkscape:connector-curvature="0" /><path
         id="path50"
         style="fill:#171717;fill-opacity:1;fill-rule:nonzero;stroke:none"
         d="m 6023.48,2035.94 c 0.21,-9.38 7.98,-16.8 17.36,-16.59 9.37,0.21 16.8,7.98 16.58,17.36 -0.21,9.36 -7.99,16.8 -17.35,16.58 -9.38,-0.21 -16.8,-7.99 -16.59,-17.35"
         inkscape:connector-curvature="0" /><path
         id="path52"
         style="fill:none;stroke:#fe9575;stroke-width:9.82361984;stroke-linecap:round;stroke-linejoin:round;stroke-miterlimit:10;stroke-dasharray:none;stroke-opacity:1"
         d="m 6130.81,1999.29 4.76,-60.08 -28.16,-0.8"
         inkscape:connector-curvature="0" /><path
         id="path54"
         style="fill:#171717;fill-opacity:1;fill-rule:nonzero;stroke:none"
         d="m 6091.56,2131.54 v 0 c 0.32,-13.86 -11.33,-24.93 -25.15,-23.88 -20.86,1.58 -51.42,1.94 -80.31,-5.02 -10.74,-2.6 -21.65,3.4 -24.65,14.04 v 0 c -2.89,10.19 3,19.76 12.46,24.53 19.36,9.79 49.83,23.92 98.33,12.89 10.88,-2.47 19.07,-11.4 19.32,-22.56"
         inkscape:connector-curvature="0" /><path
         id="path56"
         style="fill:#171717;fill-opacity:1;fill-rule:nonzero;stroke:none"
         d="m 6164.46,2113.83 v 0 c -4,-12.92 0.05,-26.87 8.76,-30.08 13.15,-4.85 31.86,-13.8 47.54,-29.12 5.83,-5.7 14.13,-3.38 18.89,5.69 v 0 c 4.56,8.7 3.6,19.48 -0.84,26.85 -9.1,15.07 -23.78,37.6 -56.36,41.98 -7.3,0.99 -14.75,-4.92 -17.99,-15.32"
         inkscape:connector-curvature="0" /><path
         id="path58"
         style="fill:#171717;fill-opacity:1;fill-rule:nonzero;stroke:none"
         d="m 6104.07,1879.96 c -1.6,-9.82 -10.87,-16.47 -20.68,-14.87 -9.82,1.61 -16.48,10.87 -14.87,20.68 1.61,9.83 10.86,16.48 20.69,14.87 9.81,-1.61 16.47,-10.86 14.86,-20.68"
         inkscape:connector-curvature="0" /><path
         id="path60"
         style="fill:#171717;fill-opacity:1;fill-rule:nonzero;stroke:none"
         d="m 5805.62,2008.5 c 0,0 121.58,86.33 135.93,267.62 0,0 102.35,-18.79 172.38,-60.43 19.44,-11.56 40.83,-19.79 63.41,-21.12 45.05,-2.65 134.56,33.56 106.44,148.75 -43.47,177.99 -239.54,136.98 -295.23,77.23 0,0 -205.63,47.76 -241.56,-171.25 -13.97,-85.2 58.63,-240.8 58.63,-240.8"
         inkscape:connector-curvature="0" /><path
         id="path62"
         style="fill:#fdc3ab;fill-opacity:1;fill-rule:nonzero;stroke:none"
         d="m 5717.75,2067.31 c 2.75,-45.7 42.02,-80.52 87.71,-77.78 45.7,2.75 80.53,42.01 77.78,87.72 -2.74,45.7 -42.01,80.51 -87.71,77.78 -45.7,-2.74 -80.52,-42.02 -77.78,-87.72"
         inkscape:connector-curvature="0" /><path
         id="path64"
         style="fill:none;stroke:#fe9575;stroke-width:9.82361984;stroke-linecap:round;stroke-linejoin:round;stroke-miterlimit:10;stroke-dasharray:none;stroke-opacity:1"
         d="m 5769.75,2104.51 c 0,0 63.16,2.87 63.37,-65.94"
         inkscape:connector-curvature="0" /><path
         id="path66"
         style="fill:#fdac52;fill-opacity:1;fill-rule:nonzero;stroke:none"
         d="m 6015.64,1676.14 c 0,0 148.66,-30.5 211.41,-76.48 l 48.36,-273.65 -50.95,-837.178 C 5832.07,243.219 5414.37,468.441 5414.37,468.441 L 5518.89,1582.2 c 0,0 37.48,79.9 308.97,103.14 l 187.78,-9.2"
         inkscape:connector-curvature="0" /><path
         id="path68"
         style="fill:#fdc3ab;fill-opacity:1;fill-rule:nonzero;stroke:none"
         d="m 5708.24,1669.13 c 0,0 -9.85,-146.15 228.56,-157.7 32.63,-1.58 65.54,3.8 95.15,17.64 41.07,19.18 83.48,56.89 57.84,128.42 0,0 -54.29,25.91 -174.52,31.5 -120.22,5.61 -207.03,-19.86 -207.03,-19.86"
         inkscape:connector-curvature="0" /><path
         id="path70"
         style="fill:none;stroke:#e5892c;stroke-width:9.82361984;stroke-linecap:round;stroke-linejoin:round;stroke-miterlimit:10;stroke-dasharray:none;stroke-opacity:1"
         d="m 6258.71,1051.58 21.47,293.3"
         inkscape:connector-curvature="0" /><path
         id="path72"
         style="fill:#fdc3ab;fill-opacity:1;fill-rule:nonzero;stroke:none"
         d="m 5199.62,360.59 94.6,795.06 296.59,26.88 -141.37,-817.811 -249.82,-4.129"
         inkscape:connector-curvature="0" /><path
         id="path74"
         style="fill:#fdac52;fill-opacity:1;fill-rule:nonzero;stroke:none"
         d="m 5646.61,1652.04 c 0,0 -404.09,-50.09 -416.34,-571.86 l 413.96,-55.8 24.37,341.24 -21.99,286.42"
         inkscape:connector-curvature="0" /><path
         id="path76"
         style="fill:none;stroke:#e5892c;stroke-width:9.82361984;stroke-linecap:round;stroke-linejoin:round;stroke-miterlimit:10;stroke-dasharray:none;stroke-opacity:1"
         d="m 5565.31,1035.02 49.32,-10.64 48.97,271.16"
         inkscape:connector-curvature="0" /></g></g><path
     id="path78"
     style="fill:#d4e5ee;fill-opacity:1;fill-rule:nonzero;stroke:none;stroke-width:0.13333333"
     d="M 303.20133,299.26668 H 68.557332 V 64.622685 H 303.20133 V 299.26668"
     inkscape:connector-curvature="0" /><path
     id="path80"
     style="fill:#171717;fill-opacity:1;fill-rule:nonzero;stroke:none;stroke-width:0.13333333"
     d="m 215.82533,111.36935 c 0,19.06 -17.648,34.53067 -37.232,34.53067 -19.58267,0 -35.45733,-15.452 -35.45733,-34.512 0,-19.060002 15.87466,-34.512002 35.45733,-34.512002 19.584,0 37.232,15.430666 37.232,34.493332"
     inkscape:connector-curvature="0" /><path
     id="path82"
     style="fill:#171717;fill-opacity:1;fill-rule:nonzero;stroke:none;stroke-width:0.13333333"
     d="m 215.55999,107.37202 c 0,0 1.156,11.86933 4.86534,18.42266 5.48133,9.68267 10.94933,21.5 9.176,32.73067 l -95.36267,2.74667 c 0,0 -0.62666,-18.38 8.08134,-26.348 8.70666,-7.96667 2.608,-28.34534 2.608,-28.34534 l 70.63199,0.79334"
     inkscape:connector-curvature="0" /><path
     id="path84"
     style="fill:#8b3921;fill-opacity:1;fill-rule:nonzero;stroke:none;stroke-width:0.13333333"
     d="m 158.92,135.04002 c -1.87734,6.19466 -8.42,9.69466 -14.61467,7.81733 -6.19467,-1.87867 -9.69467,-8.42133 -7.81733,-14.616 1.87733,-6.19467 8.42133,-9.69467 14.616,-7.81733 6.19466,1.87866 9.69333,8.42133 7.816,14.616"
     inkscape:connector-curvature="0" /><path
     id="path86"
     style="fill:#c47059;fill-opacity:1;fill-rule:nonzero;stroke:none;stroke-width:0.13333333"
     d="m 167.972,153.20802 0.868,35.18933 31.02933,-4.58133 -5.47467,-53.232 -26.42266,22.624"
     inkscape:connector-curvature="0" /><path
     id="path88"
     style="fill:#8b3921;fill-opacity:1;fill-rule:nonzero;stroke:none;stroke-width:0.13333333"
     d="m 168.392,170.19335 c 0,0 16.356,0.30667 17.88266,-18.98667 l -18.17466,8.012 0.292,10.97467"
     inkscape:connector-curvature="0" /><path
     id="path90"
     style="fill:#c47059;fill-opacity:1;fill-rule:nonzero;stroke:none;stroke-width:0.13333333"
     d="m 148.73466,94.537351 c -2.512,2.122667 -4.11333,5.102667 -4.756,8.317329 -1.90533,9.52934 -5.64666,27.97467 -2.27466,38.08934 4.38533,13.15466 15.068,21.472 32.32933,18.19066 0,0 20.884,-3.412 24.93867,-28.936 6.63733,-41.766662 -28.72267,-53.843995 -50.23734,-35.661329"
     inkscape:connector-curvature="0" /><path
     id="path92"
     style="fill:#171717;fill-opacity:1;fill-rule:nonzero;stroke:none;stroke-width:0.13333333"
     d="m 147.61866,124.09468 c -0.32,1.21734 -1.56533,1.94534 -2.784,1.62534 -1.21733,-0.32 -1.944,-1.56667 -1.624,-2.784 0.32,-1.21734 1.56667,-1.944 2.784,-1.624 1.21734,0.31866 1.944,1.56533 1.624,2.78266"
     inkscape:connector-curvature="0" /><path
     id="path94"
     style="fill:#171717;fill-opacity:1;fill-rule:nonzero;stroke:none;stroke-width:0.13333333"
     d="m 166.88,124.48135 c -0.32,1.21733 -1.56667,1.944 -2.784,1.62533 -1.21734,-0.32133 -1.944,-1.56666 -1.624,-2.784 0.32,-1.21733 1.56533,-1.944 2.78266,-1.62533 1.21734,0.32133 1.944,1.56667 1.62534,2.784"
     inkscape:connector-curvature="0" /><path
     id="path96"
     style="fill:none;stroke:#8b3921;stroke-width:1.37344003;stroke-linecap:round;stroke-linejoin:round;stroke-miterlimit:10;stroke-dasharray:none;stroke-opacity:1"
     d="m 151.48133,128.19202 -2.25333,5.42533 3.65066,0.984"
     inkscape:connector-curvature="0" /><path
     id="path98"
     style="fill:#171717;fill-opacity:1;fill-rule:nonzero;stroke:none;stroke-width:0.13333333"
     d="m 159.58533,114.13335 v 0 c -0.1,1.564 1.164,2.872 2.73067,2.81733 2.36533,-0.08 5.82,0.0227 9.05066,0.94534 1.20267,0.344 2.464,-0.28134 2.85334,-1.47067 v 0 c 0.37333,-1.13733 -0.248,-2.24667 -1.29334,-2.83067 -2.14133,-1.196 -5.51733,-2.93733 -11.04933,-1.92 -1.24133,0.228 -2.21067,1.2 -2.292,2.45867"
     inkscape:connector-curvature="0" /><path
     id="path100"
     style="fill:#171717;fill-opacity:1;fill-rule:nonzero;stroke:none;stroke-width:0.13333333"
     d="m 149.95333,114.14935 v 0 c -0.15733,1.52267 -1.19733,2.79333 -2.24667,2.74133 -1.58266,-0.08 -3.92666,0.0213 -6.23733,0.91867 -0.86,0.33333 -1.62,-0.276 -1.712,-1.432 v 0 c -0.088,-1.10667 0.49067,-2.18533 1.27867,-2.75467 1.616,-1.16266 4.14266,-2.856 7.72666,-1.86533 0.804,0.22133 1.31734,1.16667 1.19067,2.392"
     inkscape:connector-curvature="0" /><path
     id="path102"
     style="fill:#ffffff;fill-opacity:1;fill-rule:nonzero;stroke:none;stroke-width:0.13333333"
     d="m 150.564,140.04268 12.8,-1.47733 c 0,0 0.804,5.24 -5.53467,5.96667 -6.34,0.72666 -7.26533,-4.48934 -7.26533,-4.48934"
     inkscape:connector-curvature="0" /><path
     id="path104"
     style="fill:#171717;fill-opacity:1;fill-rule:nonzero;stroke:none;stroke-width:0.13333333"
     d="m 192.92666,130.71468 c 0,0 -15.296,-9.988 -7.43866,-29.02266 0,0 21.15333,6.288 17.66933,8.96 -3.484,2.672 -10.23067,20.06266 -10.23067,20.06266"
     inkscape:connector-curvature="0" /><path
     id="path106"
     style="fill:#171717;fill-opacity:1;fill-rule:nonzero;stroke:none;stroke-width:0.13333333"
     d="m 189.88933,107.41602 c 0,0 -18.42533,1.2 -51.99867,0.056 0,0 1.85867,-27.341335 34.54934,-30.205335 30.30266,-2.657334 39.68399,24.183995 32.50666,47.383995 l -13.168,3.456 -1.88933,-20.69066"
     inkscape:connector-curvature="0" /><path
     id="path108"
     style="fill:#c47059;fill-opacity:1;fill-rule:nonzero;stroke:none;stroke-width:0.13333333"
     d="m 209.92666,134.00802 c -1.82,6.004 -8.16133,9.396 -14.16533,7.576 -6.00267,-1.81867 -9.39467,-8.16134 -7.57467,-14.164 1.81867,-6.004 8.16,-9.39467 14.164,-7.576 6.004,1.82 9.39467,8.16133 7.576,14.164"
     inkscape:connector-curvature="0" /><path
     id="path110"
     style="fill:none;stroke:#8b3921;stroke-width:1.2906667;stroke-linecap:round;stroke-linejoin:round;stroke-miterlimit:10;stroke-dasharray:none;stroke-opacity:1"
     d="m 204.17999,127.39602 c 0,0 -8.32666,-2.39067 -10.54266,6.772"
     inkscape:connector-curvature="0" /><path
     id="path112"
     style="fill:#c47059;fill-opacity:1;fill-rule:nonzero;stroke:none;stroke-width:0.13333333"
     d="m 129.38066,299.26668 17.82334,-61.34267 -30.9556,1.208 -13.19427,60.13467 h 26.32653"
     inkscape:connector-curvature="0" /><path
     id="path114"
     style="fill:#fdac52;fill-opacity:1;fill-rule:nonzero;stroke:none;stroke-width:0.13333333"
     d="m 144.844,187.53868 c 0,0 -26.43467,1.28934 -39.3784,56.608 l 42.98106,19.76933 -3.60266,-76.37733"
     inkscape:connector-curvature="0" /><path
     id="path116"
     style="fill:#fdac52;fill-opacity:1;fill-rule:nonzero;stroke:none;stroke-width:0.13333333"
     d="m 144.844,187.53868 c 0,0 -24.44347,57.31333 -7.27334,75.268 l 25.904,36.46 h 59.852 c 0,0 26.66267,-36.624 26.05467,-73.068 -0.608,-36.44533 -29.412,-40.27733 -29.412,-40.27733 l -70.02667,0.79867 -5.09866,0.81866"
     inkscape:connector-curvature="0" /><path
     id="path118"
     style="fill:#c47059;fill-opacity:1;fill-rule:nonzero;stroke:none;stroke-width:0.13333333"
     d="m 149.94266,186.72002 c 0,0 23.25867,-5.48267 28.62667,-5.48267 0,0 14.89467,-1.14 41.4,4.684 0,0 -6.02667,4.80533 -14.86,12.65867 -17.68133,15.71866 -45.53733,9.75066 -55.16667,-11.86 v 0"
     inkscape:connector-curvature="0" /><path
     id="path120"
     style="fill:none;stroke:#e5892c;stroke-width:1.34339988;stroke-linecap:round;stroke-linejoin:round;stroke-miterlimit:10;stroke-dasharray:none;stroke-opacity:1"
     d="m 135.79866,217.08801 c 0,0 -10.66893,16.324 -1.81066,40.17734"
     inkscape:connector-curvature="0" /><path
     id="path122"
     style="fill:#c47059;fill-opacity:1;fill-rule:nonzero;stroke:none;stroke-width:0.13333333"
     d="m 228.32133,237.04401 19.61866,74.94134 c 1.68667,8.34666 10.18,13.43733 18.336,10.992 v 0 c 6.80267,-2.03867 11.11867,-8.716 10.18667,-15.756 l -11.224,-62.36267 -36.91733,-7.81467"
     inkscape:connector-curvature="0" /><path
     id="path124"
     style="fill:#fdac52;fill-opacity:1;fill-rule:nonzero;stroke:none;stroke-width:0.13333333"
     d="m 219.96933,185.92135 c 0,0 33.41066,0.91467 40.88533,13.528 7.47467,12.612 21.98667,53.32933 21.98667,53.32933 l -56.552,9.2 -6.32,-76.05733"
     inkscape:connector-curvature="0" /><path
     id="path126"
     style="fill:none;stroke:#e5892c;stroke-width:1.34339988;stroke-linecap:round;stroke-linejoin:round;stroke-miterlimit:10;stroke-dasharray:none;stroke-opacity:1"
     d="m 233.41333,260.84268 -8.38534,1.488 -5.09333,-31.53067"
     inkscape:connector-curvature="0" /><path
     id="path128"
     style="fill:#c47059;fill-opacity:1;fill-rule:nonzero;stroke:none;stroke-width:0.13333333"
     d="m 175.63733,299.26668 83.00933,23.97333 c 6.53733,1.91867 15.668,-4.32933 17.492,-10.89333 v 0 c 2.028,-7.3 -3.01333,-20.01733 -10.552,-20.77067 l -85.40533,-5.90133 -4.544,13.592"
     inkscape:connector-curvature="0" /><path
     id="path130"
     style="fill:#c47059;fill-opacity:1;fill-rule:nonzero;stroke:none;stroke-width:0.13333333"
     d="m 180.18133,285.67468 c 0,0 -37.69067,-9.01467 -37.69067,13.592 h 33.14667 l 4.544,-13.592"
     inkscape:connector-curvature="0" /><path
     id="path132"
     style="fill:#d4e5ee;fill-opacity:1;fill-rule:nonzero;stroke:none;stroke-width:0.13333333"
     d="M 646.93065,299.63868 H 947.62264 L 799.49731,67.504018 Z"
     inkscape:connector-curvature="0" /><path
     id="path134"
     style="fill:#fd404e;fill-opacity:1;fill-rule:nonzero;stroke:none;stroke-width:0.13333333"
     d="m 841.75065,181.63868 v 0 c 9.84,-3.88266 21.036,0.12267 26.17866,9.368 l 31.28,73.84667 c 5.21067,9.368 2.596,21.152 -6.088,27.436 v 0 c -10.28533,7.44 -24.76,4.21733 -30.91733,-6.884 l -38.3,-69.628 c -6.17867,-11.14134 5.996,-29.46133 17.84667,-34.13867"
     inkscape:connector-curvature="0" /><path
     id="path136"
     style="fill:#fd404e;fill-opacity:1;fill-rule:nonzero;stroke:none;stroke-width:0.13333333"
     d="m 899.20931,264.85335 20.64267,34.78533 h -49.59867 l -6.976,-12.5 35.932,-22.28533"
     inkscape:connector-curvature="0" /><path
     id="path138"
     style="fill:#fd404e;fill-opacity:1;fill-rule:nonzero;stroke:none;stroke-width:0.13333333"
     d="m 794.34131,178.22935 -37.02533,-2.72667 c -10.396,-0.76533 -19.07067,7.828 -18.40533,18.23067 l 0.0187,22.632 3.50934,82.86666 h 90.60666 l 25.84534,-86.26933 -5.62667,-32.85066 -23.432,-1.14134 -35.49067,-0.74133"
     inkscape:connector-curvature="0" /><path
     id="path140"
     style="fill:none;stroke:#b7152c;stroke-width:1.42828;stroke-linecap:round;stroke-linejoin:round;stroke-miterlimit:10;stroke-dasharray:none;stroke-opacity:1"
     d="m 846.00931,255.96135 c 0,0 12.88134,-17.724 0.84,-46.95867"
     inkscape:connector-curvature="0" /><path
     id="path142"
     style="fill:#fd404e;fill-opacity:1;fill-rule:nonzero;stroke:none;stroke-width:0.13333333"
     d="m 776.44265,200.42268 v 0 c 4.87866,9.388 9.336,10.61867 0.67066,16.688 l -80.74266,62.02133 c -8.78,6.14934 -20.77067,4.764 -27.91733,-3.22533 v 0 c -8.46267,-9.46267 -6.74934,-24.19333 3.65733,-31.46133 l 73.25466,-65.2 c 10.444,-7.29467 25.20267,9.872 31.07734,21.17733"
     inkscape:connector-curvature="0" /><path
     id="path144"
     style="fill:none;stroke:#b7152c;stroke-width:1.42828;stroke-linecap:round;stroke-linejoin:round;stroke-miterlimit:10;stroke-dasharray:none;stroke-opacity:1"
     d="m 741.11065,244.76535 22.06666,-17.28134"
     inkscape:connector-curvature="0" /><path
     id="path146"
     style="fill:#fe9575;fill-opacity:1;fill-rule:nonzero;stroke:none;stroke-width:0.13333333"
     d="m 690.87998,166.18802 c 0,0 13.65734,1.66533 16.288,-15.45867 l 3.36667,-22.144 c 0.356,-2.34133 -1.416,-4.46533 -3.78267,-4.536 v 0 c -1.60666,-0.0467 -3.08,0.88533 -3.72533,2.35733 l -5.17467,11.71734 -5.968,-37.908 c -0.41066,-2.598669 -3.048,-4.213336 -5.54933,-3.397336 v 0 c -1.936,0.633334 -3.156,2.545334 -2.916,4.569336 l 2.83067,23.732 -2.10667,1.10933 -8.56,-22.53733 c -0.92267,-2.42534 -3.83067,-3.404 -6.03067,-2.02934 v 0 c -1.66266,1.04 -2.36266,3.10667 -1.672,4.94134 l 8.35734,22.21466 -2.14934,1.43467 -9.63066,-17.768 c -0.90934,-1.67467 -3.02534,-2.26133 -4.66534,-1.29333 v 0 c -1.532,0.904 -2.096,2.844 -1.28533,4.42666 l 9.71067,18.99467 -1.74,1.25733 -10.252,-13.332 c -1.152,-1.5 -3.39467,-1.552 -4.61734,-0.10933 v 0 c -0.87333,1.03333 -0.93866,2.52667 -0.15733,3.63067 l 11.44133,16.18133 c 0,0 4.692,23.852 16.604,24.72933 l 11.384,-0.78266"
     inkscape:connector-curvature="0" /><path
     id="path148"
     style="fill:none;stroke:#e56b53;stroke-width:1.44665337;stroke-linecap:round;stroke-linejoin:round;stroke-miterlimit:10;stroke-dasharray:none;stroke-opacity:1"
     d="m 697.85198,138.12402 c 0,0 -9.78933,-3.56 -13.43466,12.91466"
     inkscape:connector-curvature="0" /><path
     id="path150"
     style="fill:#fe9575;fill-opacity:1;fill-rule:nonzero;stroke:none;stroke-width:0.13333333"
     d="m 676.39465,163.68002 -4.23467,35.92533 25.784,2.256 1.904,-43.396 -23.45333,5.21467"
     inkscape:connector-curvature="0" /><path
     id="path152"
     style="fill:#fd404e;fill-opacity:1;fill-rule:nonzero;stroke:none;stroke-width:0.13333333"
     d="m 668.98265,173.60668 -5.91867,87.74667 41.972,-19.54667 -0.80533,-67.09066 -35.248,-1.10934"
     inkscape:connector-curvature="0" /><path
     id="path154"
     style="fill:none;stroke:#b7152c;stroke-width:1.42828;stroke-linecap:round;stroke-linejoin:round;stroke-miterlimit:10;stroke-dasharray:none;stroke-opacity:1"
     d="m 704.71998,215.42135 0.316,20.70266"
     inkscape:connector-curvature="0" /><path
     id="path156"
     style="fill:#208ced;fill-opacity:1;fill-rule:nonzero;stroke:none;stroke-width:0.13333333"
     d="m 845.31065,98.969351 c 0,0 2.97466,23.601329 2.348,47.694669 -0.62667,24.09333 11.232,35.712 11.232,35.712 0,0 -5.01334,-3.204 -14.74,1.92266 -9.728,5.12667 -26.55067,33.18133 -67.82667,0.97867 0,0 -17.04533,-10.04933 -30.95867,-6.032 0,0 14.112,-19.16933 17.19067,-36.03867 3.07867,-16.868 -6.33333,-39.932 18.828,-62.363995 l 63.92667,18.126666"
     inkscape:connector-curvature="0" /><path
     id="path158"
     style="fill:#208ced;fill-opacity:1;fill-rule:nonzero;stroke:none;stroke-width:0.13333333"
     d="m 802.28265,67.904018 c 0,0 31.59866,-5.584 41.704,24.954666 8.76266,26.479996 -8.768,51.189336 -8.768,51.189336 l -55.98534,-10.26667 23.04934,-65.877332"
     inkscape:connector-curvature="0" /><path
     id="path160"
     style="fill:#fe9575;fill-opacity:1;fill-rule:nonzero;stroke:none;stroke-width:0.13333333"
     d="m 833.47598,85.314685 c 2.59867,2.381333 4.18133,5.642666 4.73067,9.111999 1.62533,10.285336 4.76933,31.667996 0.71866,42.350666 -5.268,13.89333 -17.06533,22.33333 -35.404,18.06933 0,0 -21.38,-1.84533 -25.384,-33.53466 -5.68266,-44.960002 33.09467,-56.402668 55.33867,-35.997335"
     inkscape:connector-curvature="0" /><path
     id="path162"
     style="fill:#171717;fill-opacity:1;fill-rule:nonzero;stroke:none;stroke-width:0.13333333"
     d="m 822.90665,80.466685 c 0,0 1.88266,7.759999 -18.14934,14.854666 -18.376,6.509329 -18.076,24.183999 -18.076,24.183999 l -8.95333,-9.58267 c 0,0 -2.82,-30.362662 24.85333,-34.655995 0,0 15.468,-2.988 20.32534,5.2"
     inkscape:connector-curvature="0" /><path
     id="path164"
     style="fill:#171717;fill-opacity:1;fill-rule:nonzero;stroke:none;stroke-width:0.13333333"
     d="m 820.69331,80.221351 c 0,0 3.28,5.696 10.12267,9.342667 6.00533,3.2 8.22933,6.468 8.22933,6.468 0,0 -3.08,-21.145333 -30.096,-21.38 l 11.744,5.569333"
     inkscape:connector-curvature="0" /><path
     id="path166"
     style="fill:#171717;fill-opacity:1;fill-rule:nonzero;stroke:none;stroke-width:0.13333333"
     d="m 833.38531,117.00935 c 0.29067,1.31733 1.592,2.15067 2.91067,1.86 1.316,-0.288 2.14933,-1.59067 1.86,-2.908 -0.29067,-1.31867 -1.592,-2.15067 -2.90933,-1.86133 -1.31734,0.29066 -2.15067,1.592 -1.86134,2.90933"
     inkscape:connector-curvature="0" /><path
     id="path168"
     style="fill:#171717;fill-opacity:1;fill-rule:nonzero;stroke:none;stroke-width:0.13333333"
     d="m 812.74798,116.58535 c 0.288,1.31733 1.59067,2.15067 2.908,1.86 1.31733,-0.28933 2.14933,-1.592 1.86133,-2.90933 -0.29066,-1.31734 -1.59333,-2.15067 -2.91066,-1.86 -1.316,0.28933 -2.14934,1.592 -1.85867,2.90933"
     inkscape:connector-curvature="0" /><path
     id="path170"
     style="fill:none;stroke:#e56b53;stroke-width:1.44665337;stroke-linecap:round;stroke-linejoin:round;stroke-miterlimit:10;stroke-dasharray:none;stroke-opacity:1"
     d="m 829.07198,121.22668 2.17733,5.90934 -3.952,0.892"
     inkscape:connector-curvature="0" /><path
     id="path172"
     style="fill:#171717;fill-opacity:1;fill-rule:nonzero;stroke:none;stroke-width:0.13333333"
     d="m 819.77598,100.46402 v 0 c 0.36133,1.64133 -0.76533,3.22933 -2.43467,3.428 -2.51733,0.29866 -6.16,0.968 -9.432,2.47066 -1.21733,0.55867 -2.656,0.1 -3.26133,-1.09466 v 0 c -0.58,-1.14534 -0.10267,-2.42 0.91067,-3.208 2.07466,-1.61467 5.36666,-4.008002 11.392,-3.828002 1.352,0.04 2.53466,0.912 2.82533,2.232002"
     inkscape:connector-curvature="0" /><path
     id="path174"
     style="fill:#171717;fill-opacity:1;fill-rule:nonzero;stroke:none;stroke-width:0.13333333"
     d="m 831.74665,100.77868 v 0 c -0.176,1.63067 0.63066,3.19467 1.74133,3.37334 1.67733,0.27066 4.112,0.89733 6.33333,2.35333 0.82667,0.54267 1.76,0.0733 2.11334,-1.11733 v 0 c 0.34,-1.14134 -0.0253,-2.40134 -0.72667,-3.172 -1.43333,-1.58 -3.704,-3.918669 -7.68,-3.678669 -0.892,0.05333 -1.64133,0.929333 -1.78133,2.241329"
     inkscape:connector-curvature="0" /><path
     id="path176"
     style="fill:none;stroke:#e56b53;stroke-width:1.44665337;stroke-linecap:round;stroke-linejoin:round;stroke-miterlimit:10;stroke-dasharray:none;stroke-opacity:1"
     d="m 828.97065,135.02935 c 0,0 -7.716,2.59333 -12.04134,-3.05067"
     inkscape:connector-curvature="0" /><path
     id="path178"
     style="fill:#208ced;fill-opacity:1;fill-rule:nonzero;stroke:none;stroke-width:0.13333333"
     d="m 820.86398,76.009351 c 0,0 -41.512,-1.212 -34.18267,43.495999 7.33067,44.70667 33.26667,35.56933 33.26667,35.56933 l -21.10133,15.43334 c 0,0 -34.01867,-7.832 -35.61867,-48.208 -0.78933,-19.89334 2.91067,-41.554669 17.948,-49.770668 16.68133,-9.114667 35.88667,-3.993334 39.688,3.479999"
     inkscape:connector-curvature="0" /><path
     id="path180"
     style="fill:none;stroke:#0f7ad3;stroke-width:1.08498657;stroke-linecap:round;stroke-linejoin:round;stroke-miterlimit:10;stroke-dasharray:none;stroke-opacity:1"
     d="m 795.30531,145.53468 c 0,0 5.71467,14.58267 30.164,15.576"
     inkscape:connector-curvature="0" /><path
     id="path182"
     style="fill:none;stroke:#0f7ad3;stroke-width:1.08498657;stroke-linecap:round;stroke-linejoin:round;stroke-miterlimit:10;stroke-dasharray:none;stroke-opacity:1"
     d="m 840.91065,132.19068 c 0,0 1.31733,35.716 -42.064,38.31734"
     inkscape:connector-curvature="0" /><path
     id="path184"
     style="fill:none;stroke:#0f7ad3;stroke-width:1.08498657;stroke-linecap:round;stroke-linejoin:round;stroke-miterlimit:10;stroke-dasharray:none;stroke-opacity:1"
     d="m 853.30531,175.45602 c 0,0 -7.38933,-6.70667 -22.58266,-5.012 -15.19467,1.69466 -34.87334,6.46133 -48.36667,-12.504 -16.48667,-23.168 -17.75333,-48.56267 -14.952,-66.470669"
     inkscape:connector-curvature="0" /><path
     id="path186"
     style="fill:#d4e5ee;fill-opacity:1;fill-rule:nonzero;stroke:none;stroke-width:0.13333333"
     d="m 371.70132,600.41454 h 234.644 v -234.6452 h -234.644 v 234.6452"
     inkscape:connector-curvature="0" /><g
     id="g188"
     transform="matrix(0.13333333,0,0,-0.13333333,0,666.66667)"><g
       clip-path="url(#clipPath194)"
       id="g190"><path
         id="path196"
         style="fill:#c47059;fill-opacity:1;fill-rule:nonzero;stroke:none"
         d="m 4153.1,1014.26 80.85,-549.49 h -271.17 l -54.93,500.07 245.25,49.42"
         inkscape:connector-curvature="0" /><path
         id="path198"
         style="fill:#49287a;fill-opacity:1;fill-rule:nonzero;stroke:none"
         d="m 4010.23,1450.92 c 0,0 156.82,-91.16 202.55,-482.19 l -292.42,-94.281 89.87,576.471"
         inkscape:connector-curvature="0" /><path
         id="path200"
         style="fill:#8b3921;fill-opacity:1;fill-rule:nonzero;stroke:none"
         d="m 3811.22,1913.74 c 8.7,-41.39 49.32,-67.89 90.71,-59.19 41.4,8.7 67.9,49.31 59.2,90.7 -8.7,41.4 -49.31,67.9 -90.71,59.2 -41.4,-8.7 -67.9,-49.31 -59.2,-90.71"
         inkscape:connector-curvature="0" /><path
         id="path202"
         style="fill:#c47059;fill-opacity:1;fill-rule:nonzero;stroke:none"
         d="m 3768.98,1753.57 -6.53,-254.48 -269.7,-31.05 47.9,468.16 228.33,-182.63"
         inkscape:connector-curvature="0" /><path
         id="path204"
         style="fill:#8b3921;fill-opacity:1;fill-rule:nonzero;stroke:none"
         d="m 3765.24,1609.58 c 0,0 -186.51,22.55 -205.29,191.61 l 208.59,-76 -3.3,-115.61"
         inkscape:connector-curvature="0" /><path
         id="path206"
         style="fill:#c47059;fill-opacity:1;fill-rule:nonzero;stroke:none"
         d="m 3852.98,2235.8 c 14.9,-15.89 53.78,-76.9 56.26,-98.54 8.29,-72.34 24.11,-249.64 -9.04,-327.31 -42.2,-98.81 -129.51,-155.81 -259.69,-118.41 0,0 -119.31,14.73 -171.44,252 -79.4,361.41 231.93,454.25 383.91,292.26"
         inkscape:connector-curvature="0" /><path
         id="path208"
         style="fill:#171717;fill-opacity:1;fill-rule:nonzero;stroke:none"
         d="m 3848.9,1959.41 c 1.88,-9.49 11.1,-15.66 20.59,-13.78 9.5,1.89 15.67,11.11 13.79,20.6 -1.88,9.49 -11.1,15.66 -20.59,13.78 -9.5,-1.88 -15.67,-11.1 -13.79,-20.6"
         inkscape:connector-curvature="0" /><path
         id="path210"
         style="fill:#171717;fill-opacity:1;fill-rule:nonzero;stroke:none"
         d="m 3693.74,1965.47 c 1.89,-9.5 11.1,-15.68 20.6,-13.79 9.49,1.88 15.66,11.1 13.78,20.6 -1.88,9.49 -11.1,15.66 -20.6,13.78 -9.49,-1.88 -15.66,-11.1 -13.78,-20.59"
         inkscape:connector-curvature="0" /><path
         id="path212"
         style="fill:none;stroke:#8b3921;stroke-width:10.09980011;stroke-linecap:round;stroke-linejoin:round;stroke-miterlimit:10;stroke-dasharray:none;stroke-opacity:1"
         d="m 3813.97,1929.5 10.94,-42.49 -28.48,-5.82"
         inkscape:connector-curvature="0" /><path
         id="path214"
         style="fill:#171717;fill-opacity:1;fill-rule:nonzero;stroke:none"
         d="m 3750.48,2056.24 v 0 c 0.88,-14.29 -10.69,-26.18 -24.99,-25.65 -21.58,0.79 -53.13,-0.07 -82.64,-8.42 -10.98,-3.11 -22.47,2.64 -26,13.49 v 0 c -3.39,10.4 2.31,20.51 11.87,25.81 19.57,10.87 50.44,26.68 100.91,17.27 11.32,-2.12 20.14,-11.01 20.85,-22.5"
         inkscape:connector-curvature="0" /><path
         id="path216"
         style="fill:#171717;fill-opacity:1;fill-rule:nonzero;stroke:none"
         d="m 3823.8,2057.29 v 0 c 0.86,-13.95 9.86,-25.93 19.44,-25.84 14.47,0.11 35.81,-1.68 56.55,-10.75 7.72,-3.37 14.88,1.91 16.16,12.42 v 0 c 1.22,10.06 -3.65,20.12 -10.63,25.6 -14.29,11.22 -36.71,27.61 -69.76,19.93 -7.42,-1.72 -12.45,-10.14 -11.76,-21.36"
         inkscape:connector-curvature="0" /><path
         id="path218"
         style="fill:#ffffff;fill-opacity:1;fill-rule:nonzero;stroke:none"
         d="m 3815.8,1851.57 -115.36,3.95 c 0,0 -1.8,-42.16 54,-44.23 55.79,-2.07 61.36,40.28 61.36,40.28"
         inkscape:connector-curvature="0" /><path
         id="path220"
         style="fill:#171717;fill-opacity:1;fill-rule:nonzero;stroke:none"
         d="m 3906.17,2148.56 c 0,0 -19.64,29.83 -40.08,19.34 -34.76,-17.83 -93.31,-38.37 -235.23,6.3 0,0 -68.11,25.53 -72.45,-25.69 -4.34,-51.22 10.86,-212.31 10.86,-212.31 l -49.93,-6.7 -75.78,95.3 -19.01,181.42 c -5.09,48.63 26.49,93.43 73.96,105.18 79.93,19.77 200.42,38.54 347.33,5.97 40,-8.86 67.48,-49.44 61.08,-89.91 l -0.75,-78.9"
         inkscape:connector-curvature="0" /><path
         id="path222"
         style="fill:#c47059;fill-opacity:1;fill-rule:nonzero;stroke:none"
         d="m 3377.42,1923.46 c 9.73,-46.26 55.1,-75.87 101.35,-66.15 46.25,9.72 75.87,55.1 66.15,101.35 -9.72,46.25 -55.1,75.86 -101.36,66.14 -46.25,-9.72 -75.86,-55.09 -66.14,-101.34"
         inkscape:connector-curvature="0" /><path
         id="path224"
         style="fill:none;stroke:#8b3921;stroke-width:10.09980011;stroke-linecap:round;stroke-linejoin:round;stroke-miterlimit:10;stroke-dasharray:none;stroke-opacity:1"
         d="m 3424.89,1969.32 c 0,0 64.07,12.5 74.69,-57.74"
         inkscape:connector-curvature="0" /><path
         id="path226"
         style="fill:#49287a;fill-opacity:1;fill-rule:nonzero;stroke:none"
         d="m 3819.38,1523.55 c 0,0 127.05,-24.23 190.85,-72.63 l 37.8,-1209.541 c -520.85,-221.9376 -893.52,59.09 -893.52,59.09 l 126.55,1144.541 c 0,0 16.52,64.51 193.84,78.32 l 344.48,0.22"
         inkscape:connector-curvature="0" /><path
         id="path228"
         style="fill:#c47059;fill-opacity:1;fill-rule:nonzero;stroke:none"
         d="m 3398.54,1512.64 c 0,0 193.26,51.95 420.84,10.91 l -81.75,-210.91 -339.09,200"
         inkscape:connector-curvature="0" /><path
         id="path230"
         style="fill:none;stroke:#361963;stroke-width:10.09980011;stroke-linecap:round;stroke-linejoin:round;stroke-miterlimit:10;stroke-dasharray:none;stroke-opacity:1"
         d="m 4027.17,908.891 -10.52,247.059"
         inkscape:connector-curvature="0" /></g></g><path
     id="path232"
     style="fill:#c47059;fill-opacity:1;fill-rule:nonzero;stroke:none;stroke-width:0.13333333"
     d="m 393.38666,596.92814 15.75733,-69.1148 41.85733,2.42267 -28.52933,75.46133 c -2.71333,7.17453 -10.34,11.212 -17.79867,9.41986 v 0 c -8.10933,-1.94786 -13.14133,-10.05733 -11.28666,-18.18906"
     inkscape:connector-curvature="0" /><path
     id="path234"
     style="fill:#49287a;fill-opacity:1;fill-rule:nonzero;stroke:none;stroke-width:0.13333333"
     d="m 447.71732,466.48268 c 0,0 -45.11333,6.11599 -50.83333,71.71319 l 56.52533,19.37867 4.12,-53.51453 -9.812,-37.57733"
     inkscape:connector-curvature="0" /><path
     id="path236"
     style="fill:none;stroke:#361963;stroke-width:1.34663999;stroke-linecap:round;stroke-linejoin:round;stroke-miterlimit:10;stroke-dasharray:none;stroke-opacity:1"
     d="m 442.62799,553.87867 8.86667,3.69587 9.936,-33.77853"
     inkscape:connector-curvature="0" /><path
     id="path238"
     style="fill:#c47059;fill-opacity:1;fill-rule:nonzero;stroke:none;stroke-width:0.13333333"
     d="m 494.74665,600.41454 -83.01199,14.77453 c -6.53734,1.91773 -15.66667,-4.3292 -17.49067,-10.8932 v -0.001 c -2.028,-7.29999 3.012,-20.01773 10.552,-20.77079 l 85.404,3.29733 4.54666,13.5932"
     inkscape:connector-curvature="0" /><path
     id="path240"
     style="fill:#c47059;fill-opacity:1;fill-rule:nonzero;stroke:none;stroke-width:0.13333333"
     d="m 490.19999,586.82134 c 0,0 37.692,-9.01613 37.692,13.5932 h -33.14534 l -4.54666,-13.5932"
     inkscape:connector-curvature="0" /><path
     id="path242"
     style="fill:#c47059;fill-opacity:1;fill-rule:nonzero;stroke:none;stroke-width:0.13333333"
     d="m 568.23465,600.41454 c 0,0 0,-10.75307 12.46534,-9.01867 0,0 6.36,3.6896 5.5,19.99213 -0.10134,1.9224 -1.96134,3.44014 -4.19334,3.44014 v 0 c -2.028,0 -3.764,-1.25107 -4.12666,-2.9708 l -2.408,-11.4428 h -7.23734"
     inkscape:connector-curvature="0" /><path
     id="path244"
     style="fill:#c47059;fill-opacity:1;fill-rule:nonzero;stroke:none;stroke-width:0.13333333"
     d="m 580.69999,591.39587 c 0,0 5.21066,-2.54013 10.208,0.0265 0,0 4.64533,-1.14787 8.08133,1.28173 0,0 1.736,-0.69893 4.34266,0.56093 1.85067,0.89374 2.956,2.86667 3.004,4.92134 0.08,3.36933 -0.296,9.17866 -3.40666,12.58959 -0.72667,0.79587 -1.816,1.11987 -2.852,0.8292 -0.83067,-0.23333 -1.3,-0.0281 -1.808,-1.11973 0,0 -1.20133,2.2 -3.21067,2.2 -2.00933,0 -3.04666,-1.08133 -3.51733,-2.46827 0,0 0.84667,5.22027 -5.92933,3.8812 -6.77467,-1.33853 -4.912,-22.70253 -4.912,-22.70253"
     inkscape:connector-curvature="0" /><path
     id="path246"
     style="fill:#d4e5ee;fill-opacity:1;fill-rule:nonzero;stroke:none;stroke-width:0.13333333"
     d="m 607.03998,187.98668 c 0,65.17867 -52.83866,118.01733 -118.01733,118.01733 -65.17866,0 -118.01733,-52.83866 -118.01733,-118.01733 0,-65.18 52.83867,-118.017328 118.01733,-118.017328 65.17867,0 118.01733,52.837328 118.01733,118.017328"
     inkscape:connector-curvature="0" /><g
     id="g248"
     transform="matrix(0.13333333,0,0,-0.13333333,0,666.66667)"><g
       clip-path="url(#clipPath254)"
       id="g250"><path
         id="path256"
         style="fill:#fdac52;fill-opacity:1;fill-rule:nonzero;stroke:none"
         d="m 3888.02,4510.92 c -68.97,73.39 -162.22,56.09 -239.54,38.19 -17.85,17.59 -93.69,31.52 -146.32,17.55 -112.23,-29.79 -268.98,-193.47 -108.36,-726.33 h 618.38 c 32.27,193.39 28.77,507.86 -124.16,670.59"
         inkscape:connector-curvature="0" /><path
         id="path258"
         style="fill:#fdc3ab;fill-opacity:1;fill-rule:nonzero;stroke:none"
         d="m 3576.33,4016.76 7.62,-319.09 232.17,48.16 -44.1,438.12 -195.69,-167.19"
         inkscape:connector-curvature="0" /><path
         id="path260"
         style="fill:#fe9575;fill-opacity:1;fill-rule:nonzero;stroke:none"
         d="m 3579.45,3891.24 c 0,0 121.13,-2.27 132.43,140.31 l -134.59,-59.21 2.16,-81.1"
         inkscape:connector-curvature="0" /><path
         id="path262"
         style="fill:#fdc3ab;fill-opacity:1;fill-rule:nonzero;stroke:none"
         d="m 3438.05,4450.34 c -18.6,-15.69 -30.45,-37.72 -35.21,-61.47 -14.12,-70.42 -41.83,-216.89 -16.85,-291.64 32.48,-97.21 111.59,-158.67 239.43,-134.42 0,0 148.14,6.74 184.7,223.98 51.84,308.22 -212.73,397.92 -372.07,263.55"
         inkscape:connector-curvature="0" /><path
         id="path264"
         style="fill:#fdac52;fill-opacity:1;fill-rule:nonzero;stroke:none"
         d="m 3610.01,4492.47 c 0,0 -141.26,19.21 -207.17,-103.6 0,0 6.71,178.36 221.71,153.56 l -14.54,-49.96"
         inkscape:connector-curvature="0" /><path
         id="path266"
         style="fill:#fdac52;fill-opacity:1;fill-rule:nonzero;stroke:none"
         d="m 3610.01,4492.47 c 0,0 77.49,-4.21 93.15,-82.14 11.77,-58.63 -44.59,-121.95 46.24,-217.1 l 92.69,79.92 c 0,0 62.4,270.88 -217.54,269.28 l -14.54,-49.96"
         inkscape:connector-curvature="0" /><path
         id="path268"
         style="fill:#171717;fill-opacity:1;fill-rule:nonzero;stroke:none"
         d="m 3429.79,4231.9 c -2.37,-8.99 -11.6,-14.37 -20.62,-12 -9.01,2.36 -14.39,11.57 -12.03,20.56 2.37,9 11.61,14.38 20.62,12.01 9.01,-2.36 14.4,-11.57 12.03,-20.57"
         inkscape:connector-curvature="0" /><path
         id="path270"
         style="fill:#171717;fill-opacity:1;fill-rule:nonzero;stroke:none"
         d="m 3572.43,4229.05 c -2.37,-9 -11.6,-14.37 -20.61,-12.01 -9.02,2.36 -14.4,11.58 -12.03,20.57 2.37,9 11.6,14.37 20.61,12.01 9.01,-2.37 14.4,-11.58 12.03,-20.57"
         inkscape:connector-curvature="0" /><path
         id="path272"
         style="fill:none;stroke:#fe9575;stroke-width:10.02869987;stroke-linecap:round;stroke-linejoin:round;stroke-miterlimit:10;stroke-dasharray:none;stroke-opacity:1"
         d="m 3458.4,4201.63 -16.69,-40.1 27.04,-7.26"
         inkscape:connector-curvature="0" /><path
         id="path274"
         style="fill:#171717;fill-opacity:1;fill-rule:nonzero;stroke:none"
         d="m 3528.41,4342.1 v 0 c -2.95,-11.21 4.39,-22.47 15.85,-24.3 17.31,-2.76 42.27,-8.4 64.45,-19.66 8.25,-4.19 18.3,-1.44 22.82,6.63 v 0 c 4.33,7.73 1.39,16.65 -5.38,22.36 -13.87,11.71 -35.94,29.12 -77.6,29.57 -9.35,0.1 -17.76,-5.57 -20.14,-14.6"
         inkscape:connector-curvature="0" /><path
         id="path276"
         style="fill:#171717;fill-opacity:1;fill-rule:nonzero;stroke:none"
         d="m 3445.67,4343.29 v 0 c 0.75,-11.29 -5.26,-21.83 -12.98,-22.76 -11.65,-1.39 -28.65,-5.04 -44.4,-14.44 -5.86,-3.51 -12.17,-0.02 -14.28,8.29 v 0 c -2.02,7.96 0.85,16.54 5.91,21.66 10.34,10.48 26.68,25.95 54.07,23.19 6.15,-0.62 11.07,-6.86 11.68,-15.94"
         inkscape:connector-curvature="0" /><path
         id="path278"
         style="fill:#ffffff;fill-opacity:1;fill-rule:nonzero;stroke:none"
         d="m 3451.61,4114.05 94.79,10.92 c 0,0 5.95,-38.72 -40.99,-44.09 -46.95,-5.38 -53.8,33.17 -53.8,33.17"
         inkscape:connector-curvature="0" /><path
         id="path280"
         style="fill:none;stroke:#ffffff;stroke-width:9.4969902;stroke-linecap:butt;stroke-linejoin:miter;stroke-miterlimit:10;stroke-dasharray:none;stroke-opacity:1"
         d="m 3449.18,4236.44 c 0,-33.75 -24.79,-61.11 -55.38,-61.11 -30.58,0 -55.37,27.36 -55.37,61.11 0,33.76 24.79,61.12 55.37,61.12 30.59,0 55.38,-27.36 55.38,-61.12 z"
         inkscape:connector-curvature="0" /><path
         id="path282"
         style="fill:none;stroke:#ffffff;stroke-width:9.98756981;stroke-linecap:butt;stroke-linejoin:miter;stroke-miterlimit:10;stroke-dasharray:none;stroke-opacity:1"
         d="m 3633.57,4230.93 c 0,-33.75 -27.42,-61.11 -61.25,-61.11 -33.82,0 -61.24,27.36 -61.24,61.11 0,33.76 27.42,61.12 61.24,61.12 33.83,0 61.25,-27.36 61.25,-61.12 z"
         inkscape:connector-curvature="0" /><path
         id="path284"
         style="fill:none;stroke:#ffffff;stroke-width:9.98756981;stroke-linecap:butt;stroke-linejoin:miter;stroke-miterlimit:10;stroke-dasharray:none;stroke-opacity:1"
         d="m 3449.18,4236.44 c 0,0 30.95,21.58 61.9,-5.51"
         inkscape:connector-curvature="0" /><path
         id="path286"
         style="fill:none;stroke:#ffffff;stroke-width:9.98756981;stroke-linecap:butt;stroke-linejoin:miter;stroke-miterlimit:10;stroke-dasharray:none;stroke-opacity:1"
         d="m 3633.57,4230.93 139.85,6.83"
         inkscape:connector-curvature="0" /><path
         id="path288"
         style="fill:#fdc3ab;fill-opacity:1;fill-rule:nonzero;stroke:none"
         d="m 3901.79,4161.76 c -14.34,-47.21 -64.32,-73.88 -111.62,-59.57 -47.32,14.31 -74.05,64.18 -59.71,111.39 14.34,47.21 64.32,73.88 111.63,59.57 47.31,-14.3 74.04,-64.17 59.7,-111.39"
         inkscape:connector-curvature="0" /><path
         id="path290"
         style="fill:none;stroke:#fe9575;stroke-width:10.02869987;stroke-linecap:round;stroke-linejoin:round;stroke-miterlimit:10;stroke-dasharray:none;stroke-opacity:1"
         d="m 3856.5,4213.77 c 0,0 -65.62,18.8 -83.08,-53.26"
         inkscape:connector-curvature="0" /><path
         id="path292"
         style="fill:#387684;fill-opacity:1;fill-rule:nonzero;stroke:none"
         d="m 3312.75,3581.7 c 0,0 -134.04,-79.29 -134.04,-285.28 v -590.5 c 0,-73.35 53.32,-135.86 125.88,-147.58 v 0 c 90.71,-14.66 173.14,54.87 173.76,146.56 l 5.3,778 -170.9,98.8"
         inkscape:connector-curvature="0" /><path
         id="path294"
         style="fill:#387684;fill-opacity:1;fill-rule:nonzero;stroke:none"
         d="m 4115.81,3616.32 c 0,0 193.46,-97.35 284.47,-547.78 0,0 -76.34,-288.64 -284.47,-289.12 -208.12,-0.47 0,836.9 0,836.9"
         inkscape:connector-curvature="0" /><path
         id="path296"
         style="fill:#387684;fill-opacity:1;fill-rule:nonzero;stroke:none"
         d="m 3315.39,3580.31 c 0,0 -65.63,-57.57 -78.75,-227.79 -13.12,-170.22 243.49,-859.68 243.49,-859.68 l 635.68,51.56 98.91,852.89 c 4.64,35.92 2.34,72.67 -9.09,107.05 -12.78,38.4 -38.47,81.97 -89.82,111.98 l -800.42,-36.01"
         inkscape:connector-curvature="0" /><path
         id="path298"
         style="fill:none;stroke:#245d66;stroke-width:10.12800026;stroke-linecap:round;stroke-linejoin:round;stroke-miterlimit:10;stroke-dasharray:none;stroke-opacity:1"
         d="m 3404.92,2704.49 c 0,0 -121.69,329.66 -95.94,611.06"
         inkscape:connector-curvature="0" /><path
         id="path300"
         style="fill:none;stroke:#245d66;stroke-width:10.12800026;stroke-linecap:round;stroke-linejoin:round;stroke-miterlimit:10;stroke-dasharray:none;stroke-opacity:1"
         d="m 4153.78,2787.92 -101.96,551.77"
         inkscape:connector-curvature="0" /><path
         id="path302"
         style="fill:#fdc3ab;fill-opacity:1;fill-rule:nonzero;stroke:none"
         d="m 3661.65,3809.45 -346.26,-229.14 c 0,0 294.62,-137.42 800.42,36.01 l -330.5,193.13 h -123.66"
         inkscape:connector-curvature="0" /></g></g><path
     id="path304"
     style="fill:#fdc3ab;fill-opacity:1;fill-rule:nonzero;stroke:none;stroke-width:0.13333333"
     d="m 570.96532,272.91868 c 0,0 -6.01067,-9.48267 -16.93733,-0.068 0,0 -3.832,7.50533 7.124,22.672 1.292,1.788 4.028,2.092 6.176,0.70533 v 0 c 1.952,-1.25866 2.848,-3.54266 2.128,-5.42533 l -4.908,-12.12667 6.41733,-5.75733"
     inkscape:connector-curvature="0" /><path
     id="path306"
     style="fill:#fdc3ab;fill-opacity:1;fill-rule:nonzero;stroke:none;stroke-width:0.13333333"
     d="m 554.02799,272.85068 c 0,0 -6.596,0.79067 -9.81334,6.36933 0,0 -5.18666,1.78 -6.98533,6.25467 0,0 -2.10667,0.404 -3.83467,3.23733 -1.22666,2.01067 -1.06533,4.59734 0.16534,6.60667 2.01733,3.292 5.98666,8.656 11.10133,10.00667 1.19467,0.31466 2.44533,-0.0493 3.26267,-0.97334 0.656,-0.74133 1.23333,-0.83466 1.04666,-2.20133 0,0 2.52267,1.37067 4.45734,0.124 1.93333,-1.248 2.26266,-2.93467 1.85333,-4.56267 0,0 2.428,5.55334 8.12133,0.0547 5.692,-5.49867 -9.37466,-24.916 -9.37466,-24.916"
     inkscape:connector-curvature="0" /><path
     id="path308"
     style="fill:#d4e5ee;fill-opacity:1;fill-rule:nonzero;stroke:none;stroke-width:0.13333333"
     d="m 299.84133,485.09467 c 0,65.1788 -52.83867,118.01733 -118.01733,118.01733 -65.1792,0 -118.017202,-52.83853 -118.017202,-118.01733 0,-65.17866 52.838002,-118.01733 118.017202,-118.01733 65.17866,0 118.01733,52.83867 118.01733,118.01733"
     inkscape:connector-curvature="0" /><g
     id="g310"
     transform="matrix(0.13333333,0,0,-0.13333333,0,666.66667)"><g
       clip-path="url(#clipPath316)"
       id="g312"><path
         id="path318"
         style="fill:#fdc3ab;fill-opacity:1;fill-rule:nonzero;stroke:none"
         d="m 912.27,1229.17 c 0,0 87.84,30.77 52.55,142.53 l -51.097,173.13 c -4.844,15.27 -21.953,22.86 -36.52,16.2 v 0 c -9.89,-4.53 -16.047,-14.59 -15.562,-25.45 l 2.558,-93.32 -143.769,186.67 c -10.262,14.54 -31.106,16.44 -43.832,4 v 0 c -9.856,-9.63 -11.539,-24.88 -4.02,-36.44 l 88.688,-132.03 -4.743,-6.53 -111.136,123.29 c -12.852,11.95 -33.422,9.19 -42.657,-5.73 v 0 c -6.976,-11.28 -5.035,-25.92 4.641,-34.98 l 104.227,-128.45 -5,-8.65 -110.758,97.92 c -28.832,24.6 -46.399,13.95 -53.453,3.17 v 0 c -7.293,-14.58 18.066,-38.97 27.715,-46.15 l 110.175,-105.45 -4.304,-8.14 -108.059,88.43 c -11.484,5.65 -25.242,-0.74 -28.34,-13.15 v 0 c -2.211,-8.89 1.864,-18.14 9.906,-22.5 l 121.321,-106.86 c 0,0 99.847,-130.66 174.742,-100.33 l 66.727,38.82"
         inkscape:connector-curvature="0" /><path
         id="path320"
         style="fill:none;stroke:#fe9575;stroke-width:9.82361984;stroke-linecap:round;stroke-linejoin:round;stroke-miterlimit:10;stroke-dasharray:none;stroke-opacity:1"
         d="m 864.199,1442.26 c 0,0 -64.828,-59.3 -36.484,-140.53"
         inkscape:connector-curvature="0" /><path
         id="path322"
         style="fill:#fdc3ab;fill-opacity:1;fill-rule:nonzero;stroke:none"
         d="m 1031.31,1017.39 -80.564,275.95 -160.844,-60.95 73.301,-274.242 168.107,59.242"
         inkscape:connector-curvature="0" /><path
         id="path324"
         style="fill:#ffffff;fill-opacity:1;fill-rule:nonzero;stroke:none"
         d="m 1024.48,1090.36 -40.882,104.97 -176.817,-44.84 32.008,-126.36 185.691,66.23"
         inkscape:connector-curvature="0" /><path
         id="path326"
         style="fill:#fd404e;fill-opacity:1;fill-rule:nonzero;stroke:none"
         d="m 1240.28,580.672 -158.9,484.828 c -15.26,44.36 -62,69.63 -107.489,58.07 l -133.934,-34.01 c -46.891,-11.91 -76.035,-58.7 -66.047,-106.04 L 868.965,484.242 C 887.328,397.23 969.855,339.23 1057.94,351.441 v 0 c 100.87,13.981 208.67,130.848 182.34,229.231"
         inkscape:connector-curvature="0" /><path
         id="path328"
         style="fill:#fd404e;fill-opacity:1;fill-rule:nonzero;stroke:none"
         d="m 1186.71,1279.08 c 0,0 -181.85,-351.85 28.5,-1029.432 l 268.99,238.762 -297.49,790.67"
         inkscape:connector-curvature="0" /><path
         id="path330"
         style="fill:#fdac52;fill-opacity:1;fill-rule:nonzero;stroke:none"
         d="m 2027.29,179.469 c 0,0 -331.88,-266.219 -648.05,-35.508 l -17.69,656 -44.39,445.469 62.08,104.18 184.88,47.52 221.2,-21.95 29.03,-391.489 212.94,-804.222"
         inkscape:connector-curvature="0" /><path
         id="path332"
         style="fill:#fdc3ab;fill-opacity:1;fill-rule:nonzero;stroke:none"
         d="m 1669.08,1334.12 c 0,0 -157.4,-175.49 -307.15,-32.76 l 73.05,203.56 243.87,-19.45 -9.77,-151.35"
         inkscape:connector-curvature="0" /><path
         id="path334"
         style="fill:#fd404e;fill-opacity:1;fill-rule:nonzero;stroke:none"
         d="m 1392.29,1059.46 c 16.62,-259.698 40.46,-736.48 16.45,-1049.85844 -1.47,-19.15234 -26.57,-25.19136 -36.54,-8.761716 l -0.88,1.449216 C 1346.48,43.2617 1332.18,89.4102 1329.55,136.941 l -38.84,699.809 -107.49,369.58 c -11.99,41.22 0.57,85.55 32.21,114.56 33.63,30.83 126.08,104.97 203.49,139.28 l -4.38,-23.86 c -22.78,-124.26 -30.31,-250.78 -22.25,-376.85"
         inkscape:connector-curvature="0" /><path
         id="path336"
         style="fill:none;stroke:#b7152c;stroke-width:10.71210003;stroke-linecap:round;stroke-linejoin:round;stroke-miterlimit:10;stroke-dasharray:none;stroke-opacity:1"
         d="m 1116.81,958.148 c 0,0 -7.31,-172.398 54.89,-551.046"
         inkscape:connector-curvature="0" /><path
         id="path338"
         style="fill:#fd404e;fill-opacity:1;fill-rule:nonzero;stroke:none"
         d="m 1564.12,1176 c 0,0 10.6,-616.258 262.4,-1155.0703 13.06,-27.9297 44.18,-42.5899 74,-34.7813 66.31,17.39066 191.98,68.75 308.5,265.3716 l -58.83,1000.75 c -2.37,39.26 -23.69,74.88 -57.21,95.46 -57.39,35.26 -292.34,103.92 -414.13,137.74 0,0 -77.48,-97.01 -114.73,-309.47"
         inkscape:connector-curvature="0" /><path
         id="path340"
         style="fill:#fd404e;fill-opacity:1;fill-rule:nonzero;stroke:none"
         d="m 2093.6,1347.35 c 0,0 -267.35,-250.48 -67.73,-763.791 l 33.52,-181.45 c 19.42,-105.039 123.02,-172.277 226.86,-147.211 v 0 c 93.93,22.684 155.09,113.352 140.47,208.872 -42.55,277.992 -146.99,807.74 -333.12,883.58"
         inkscape:connector-curvature="0" /><path
         id="path342"
         style="fill:none;stroke:#b7152c;stroke-width:10.71210003;stroke-linecap:round;stroke-linejoin:round;stroke-miterlimit:10;stroke-dasharray:none;stroke-opacity:1"
         d="m 2041.06,1279.08 c 0,0 -141.73,-132.46 -65.26,-534.889 76.47,-402.441 130.51,-630.461 130.51,-630.461"
         inkscape:connector-curvature="0" /><path
         id="path344"
         style="fill:#380c1d;fill-opacity:1;fill-rule:nonzero;stroke:none"
         d="m 1659.64,2189.69 c 0,0 -23.63,146.19 -206.37,136.73 -117,-6.06 -109.65,-63.34 -227.06,-72.55 -106.83,-8.38 -198.02,-94.3 -154.37,-216.31 36.58,-102.28 206.22,-138.2 206.22,-138.2 l 381.58,290.33"
         inkscape:connector-curvature="0" /><path
         id="path346"
         style="fill:#fe9575;fill-opacity:1;fill-rule:nonzero;stroke:none"
         d="m 1302.84,1808.69 c -3.2,-42.53 -40.27,-74.42 -82.8,-71.23 -42.54,3.19 -74.43,40.27 -71.23,82.8 3.19,42.54 40.26,74.43 82.8,71.23 42.54,-3.19 74.43,-40.26 71.23,-82.8"
         inkscape:connector-curvature="0" /><path
         id="path348"
         style="fill:#fdc3ab;fill-opacity:1;fill-rule:nonzero;stroke:none"
         d="m 1365.01,1664.3 50.45,-316.95 263.39,138.12 -109.89,391.73 -203.95,-212.9"
         inkscape:connector-curvature="0" /><path
         id="path350"
         style="fill:#fe9575;fill-opacity:1;fill-rule:nonzero;stroke:none"
         d="m 1387.89,1520.86 c 0,0 187.11,31.99 179.74,218.82 l -198.4,-103.7 18.66,-115.12"
         inkscape:connector-curvature="0" /><path
         id="path352"
         style="fill:#fdc3ab;fill-opacity:1;fill-rule:nonzero;stroke:none"
         d="m 1206.86,2133.82 c -12.79,-17.87 -34.65,-50.76 -33.05,-104.65 2.18,-73.38 9.08,-252.72 52.55,-325.96 55.31,-93.16 150.15,-138.52 275.31,-83.84 0,0 117.31,30.58 137.88,274.68 31.32,371.82 -302.32,421.9 -432.69,239.77"
         inkscape:connector-curvature="0" /><path
         id="path354"
         style="fill:#171717;fill-opacity:1;fill-rule:nonzero;stroke:none"
         d="m 1257.76,1859.43 c -0.61,-9.73 -9.01,-17.14 -18.75,-16.51 -9.74,0.62 -17.13,9.01 -16.51,18.75 0.61,9.75 9.01,17.14 18.75,16.52 9.74,-0.62 17.13,-9.02 16.51,-18.76"
         inkscape:connector-curvature="0" /><path
         id="path356"
         style="fill:#171717;fill-opacity:1;fill-rule:nonzero;stroke:none"
         d="m 1412.05,1886.1 c -0.61,-9.74 -9.01,-17.14 -18.75,-16.51 -9.75,0.62 -17.14,9.01 -16.52,18.75 0.62,9.75 9.02,17.14 18.76,16.51 9.74,-0.61 17.13,-9.01 16.51,-18.75"
         inkscape:connector-curvature="0" /><path
         id="path358"
         style="fill:none;stroke:#fe9575;stroke-width:10.22640038;stroke-linecap:round;stroke-linejoin:round;stroke-miterlimit:10;stroke-dasharray:none;stroke-opacity:1"
         d="m 1291.48,1840.3 -6.62,-48.91 26.09,1.16"
         inkscape:connector-curvature="0" /><path
         id="path360"
         style="fill:#380c1d;fill-opacity:1;fill-rule:nonzero;stroke:none"
         d="m 1342.34,1979.27 v 0 c 0.33,-14.43 12.97,-25.39 27.29,-23.65 21.62,2.64 53.38,4.46 83.75,-1.41 11.3,-2.19 22.35,4.56 24.98,15.76 v 0 c 2.51,10.74 -4.07,20.41 -14.13,24.93 -20.59,9.25 -52.95,22.51 -102.86,8.75 -11.19,-3.08 -19.29,-12.77 -19.03,-24.38"
         inkscape:connector-curvature="0" /><path
         id="path362"
         style="fill:#380c1d;fill-opacity:1;fill-rule:nonzero;stroke:none"
         d="m 1261.44,1967 v 0 c 1,-14.05 -6.42,-27.21 -16.01,-28.42 -14.47,-1.79 -35.56,-6.42 -55.09,-18.24 -7.26,-4.39 -15.12,-0.08 -17.79,10.26 v 0 c -2.56,9.9 0.96,20.6 7.22,27 12.79,13.11 33.01,32.49 67.08,29.2 7.64,-0.74 13.79,-8.49 14.59,-19.8"
         inkscape:connector-curvature="0" /><path
         id="path364"
         style="fill:#380c1d;fill-opacity:1;fill-rule:nonzero;stroke:none"
         d="m 1215.21,1726.12 42.92,-0.95 7.7,22.41 c 3.14,9.18 11.3,15.71 20.94,16.79 l 96.68,10.76 c 9.12,1.01 18.06,-3.03 23.32,-10.55 l 24.15,-17.81 c 0,0 116.37,-9.8 115.53,151.73 l 31.13,13.08 c 0,0 -22.75,-75.68 34.77,-148.65 0,0 -25.1,-167.81 -219.17,-167.1 0,0 -120.04,-4.64 -177.97,130.29"
         inkscape:connector-curvature="0" /><path
         id="path366"
         style="fill:none;stroke:#ffffff;stroke-width:10.18449974;stroke-linecap:round;stroke-linejoin:round;stroke-miterlimit:10;stroke-dasharray:none;stroke-opacity:1"
         d="m 1306.35,1728.46 c 0,0 33.5,-12.24 62.64,8.33"
         inkscape:connector-curvature="0" /><path
         id="path368"
         style="fill:#380c1d;fill-opacity:1;fill-rule:nonzero;stroke:none"
         d="m 1649.93,1891.03 -103.48,7.47 -1.13,130.54 c -0.12,14.2 -10.41,26.21 -23.94,27.68 -23.12,2.49 -55.7,13.63 -61.96,55.79 -9.9,66.83 21.35,110.73 21.35,110.73 0,0 199.95,60.97 249.27,-85.02 34.46,-101.97 3.4,-309.45 -127.5,-409.28 l 47.39,162.09"
         inkscape:connector-curvature="0" /><path
         id="path370"
         style="fill:#fdc3ab;fill-opacity:1;fill-rule:nonzero;stroke:none"
         d="m 1745.26,1877.4 c -3.57,-47.53 -44.99,-83.15 -92.52,-79.59 -47.52,3.58 -83.15,44.99 -79.58,92.52 3.57,47.52 44.99,83.16 92.51,79.58 47.53,-3.56 83.16,-44.99 79.59,-92.51"
         inkscape:connector-curvature="0" /><path
         id="path372"
         style="fill:none;stroke:#fe9575;stroke-width:10.22640038;stroke-linecap:round;stroke-linejoin:round;stroke-miterlimit:10;stroke-dasharray:none;stroke-opacity:1"
         d="m 1691.72,1916.93 c 0,0 -65.7,3.98 -66.98,-67.63"
         inkscape:connector-curvature="0" /><path
         id="path374"
         style="fill:#380c1d;fill-opacity:1;fill-rule:nonzero;stroke:none"
         d="m 1501.03,2199.68 c 0,0 -53.04,-64.08 -156.57,-70.85 -103.53,-6.76 -126.73,17.7 -158.97,-29.65 0,0 -9.61,143.8 175.25,175.38 184.86,31.58 187.23,-90.83 187.23,-90.83 l -46.94,15.95"
         inkscape:connector-curvature="0" /></g></g></svg>